<svg width="21" height="17" viewBox="0 0 21 17" fill="none" xmlns="http://www.w3.org/2000/svg">
<path d="M13.9213 11.536C13.0614 12.4538 11.8653 13.1996 10.1819 13.4464C9.37938 13.5642 9.12039 13.2754 8.83523 12.8867C8.27765 12.1267 7.59964 10.5011 7.89419 8.42114C8.03376 7.43609 8.23874 6.81206 8.53497 5.96726L8.39071 6.22994C8.13275 6.70092 7.87043 7.18679 7.60515 7.67814C6.58012 9.5767 5.51104 11.5569 4.47964 13.0745L4.33001 13.2916C4.17233 13.5173 4.01734 13.5447 3.92877 13.4962C3.84624 13.4503 3.86168 13.2979 3.91535 13.0844C5.4465 7.00148 1.3328 2.05775 0.0710427 0.579678C-0.028596 0.482988 -0.0597976 0.224268 0.224357 0.200178L0.269314 0.198198H5.20093C5.32674 0.198198 5.36608 0.225747 5.41295 0.258564C5.42869 0.269589 5.44529 0.281209 5.46629 0.292578C5.75884 0.450978 7.48658 4.09352 6.75455 7.53938C8.24339 4.85738 9.54402 2.98225 9.7935 2.62256C9.81769 2.5877 9.83199 2.56707 9.83564 2.56133C9.93528 2.40293 10.0406 2.39567 10.1376 2.43131C10.2902 2.48807 10.263 2.62469 10.2496 2.69036C9.68601 5.41088 10.0896 8.29046 10.9857 9.77546C11.7351 11.0178 13.1804 11.4601 13.9213 10.5356V11.536Z" fill="#34D399"/>
<path d="M16.4261 5C16.5191 3.20069 16.0268 2.01506 15.503 1.16279C14.7478 -0.066462 12.5531 -0.604032 10.9558 0.982938C10.8669 1.07501 10.7492 1.35485 11.1041 1.73237C11.4806 2.12728 12.6501 3.39537 13.5138 5H16.4261Z" fill="#34D399"/>
<path d="M14.9704 8.04273H12.0001V6H20.45V8.04273H17.4796V16.4683H14.9704V8.04273Z" fill="#34D399"/>
</svg>
