<svg width="120" height="30" viewBox="0 0 120 30" fill="none" xmlns="http://www.w3.org/2000/svg">
<path d="M66.624 25.0831H71.3191V22.9478H66.624V20.9977H71.5945V18.8681H64.2346V29.3364H71.87V27.2069H66.624V25.0831ZM90.8956 21.831C90.8956 21.044 91.8299 20.7488 92.5066 20.7488C92.8282 20.7426 93.1476 20.8011 93.4445 20.9207C93.7415 21.0402 94.0094 21.2182 94.2313 21.4433L95.8721 19.7072C94.9413 18.9598 93.7579 18.5704 92.5485 18.6135C90.4226 18.6135 88.4164 19.7709 88.4164 22.0161C88.4164 25.4882 93.5007 24.4697 93.5007 26.3909C93.5007 27.1317 92.6263 27.4846 91.8478 27.4846C91.4427 27.4782 91.0445 27.3826 90.6834 27.2052C90.3222 27.0277 90.0077 26.773 89.7638 26.4604L88.087 28.289C89.0785 29.171 90.3869 29.6443 91.734 29.6084C93.9678 29.6084 95.926 28.4973 95.926 26.1363C95.8721 22.4907 90.8956 23.7175 90.8956 21.831ZM102.855 25.0831H107.55V22.9478H102.855V20.9977H107.825V18.8681H100.465V29.3364H108.101V27.2069H102.855V25.0831ZM52 20.9109H54.9703V29.3364H57.4795V20.9109H60.4498V18.8681H52V20.9109ZM117.245 24.9153C117.937 24.8097 118.562 24.4562 118.996 23.9254C119.429 23.3946 119.641 22.7253 119.587 22.0509C119.587 19.6089 117.718 18.8681 115.503 18.8681H111.586L112.64 20.8472H115.287C116.155 20.8472 117.137 21.015 117.137 22.0624C117.137 23.2198 116.006 23.2198 115.131 23.2198H113.838L117.137 29.3538H120L117.245 24.9153ZM77.2777 18.845L80.6133 25.1641H76.601V27.23H81.7272L82.841 29.3364H85.7694L80.1462 18.845H77.2777Z" fill="white"/>
<path d="M35.8002 8.1081C36.7194 4.82493 36.0464 2.97264 35.3114 1.77672C34.5562 0.547467 32.3615 0.00989723 30.7642 1.59687C30.6753 1.68894 30.5576 1.96878 30.9125 2.3463C31.6556 3.12576 35.4882 7.30686 33.9607 10.7633C33.3404 12.1674 31.6321 11.7787 30.7941 10.3894C29.898 8.90439 29.4944 6.02481 30.058 3.30429C30.0714 3.23862 30.0986 3.102 29.946 3.04524C29.849 3.0096 29.7437 3.01686 29.644 3.17526C29.6028 3.24027 28.1961 5.21136 26.563 8.15331C27.295 4.70745 25.5672 1.06491 25.2747 0.906507C25.1912 0.861297 25.1774 0.812127 25.0093 0.812127H20.0777L20.0328 0.814107C19.7486 0.838197 19.7798 1.09692 19.8794 1.19361C21.1412 2.67168 25.2549 7.61541 23.7237 13.6983C23.6701 13.9118 23.6546 14.0643 23.7372 14.1101C23.8257 14.1586 23.9807 14.1313 24.1384 13.9055L24.288 13.6884C25.5864 11.778 26.9444 9.13473 28.1991 6.84387L28.3434 6.58119C28.0471 7.42599 27.8422 8.05002 27.7026 9.03507C27.408 11.1151 28.086 12.7406 28.6436 13.5006C28.9288 13.8894 29.1878 14.1781 29.9903 14.0603C34.0845 13.46 35.2959 9.90891 35.8002 8.1081Z" fill="white"/>
<path d="M88.0676 6.78678C88.034 4.73088 87.0853 3.51582 85.5286 3.51582C84.2112 3.51582 83.084 4.36128 82.4734 5.84661H82.4348L82.416 5.74629C82.1275 4.32333 81.2596 3.51549 79.9905 3.51549C78.673 3.51549 77.5464 4.36128 76.9355 5.84661C76.9543 4.88763 76.9922 4.00422 76.9922 3.62802C76.9922 3.55278 76.9543 3.51549 76.8782 3.51549C76.8208 3.51549 76.7446 3.53397 76.5534 3.5904L72.9637 4.56852L72.9403 4.5771C72.8839 4.60746 72.8745 4.68732 72.9252 4.73748C73.1543 5.00082 73.479 5.4516 73.479 6.6363V11.2055L73.4774 11.3454C73.4572 12.1331 73.2637 12.8268 72.8487 13.5366C72.8108 13.6122 72.8487 13.6683 72.9252 13.6683H77.47L77.4941 13.6663C77.5542 13.6554 77.5803 13.6039 77.5464 13.5366C77.2026 12.8789 76.9926 12.0136 76.9926 11.2055V7.65204L76.9936 7.54941C77.0157 6.29772 77.4498 5.60274 78.1195 5.60274C78.6542 5.60274 79.0165 6.12909 79.0165 7.0125V11.2055L79.0142 11.3626C78.9921 12.141 78.8032 12.8139 78.463 13.5366C78.4251 13.6122 78.463 13.6683 78.5392 13.6683H83.0078L83.032 13.6663C83.0917 13.6554 83.1185 13.6039 83.084 13.5366C82.7787 12.8601 82.5304 12.0136 82.5304 11.2055V7.65204L82.5314 7.54941C82.5539 6.29772 82.9877 5.60274 83.657 5.60274C84.1917 5.60274 84.5547 6.12909 84.5547 7.0125V11.2055L84.5527 11.3629C84.5322 12.1433 84.3588 12.8317 84.0012 13.5366C83.9626 13.6122 84.0012 13.6683 84.077 13.6683H88.5456L88.5698 13.6663C88.6295 13.6554 88.6557 13.6039 88.6221 13.5366C88.2783 12.8789 88.0686 12.0136 88.0686 11.2055V6.89997L88.0676 6.78678Z" fill="white"/>
<path d="M50.964 0.112527C50.964 0.0376171 50.9261 -2.86102e-06 50.85 -2.86102e-06C50.7926 -2.86102e-06 50.7161 0.0188071 50.5249 0.0749071L46.3243 1.27809L46.3008 1.287C46.2445 1.31769 46.2347 1.39755 46.2857 1.44738L46.4769 1.69191L46.5481 1.77606C47.0597 2.39844 47.374 3.14358 47.374 4.06098V11.2055L47.3717 11.3533C47.3465 12.1357 47.1217 12.8113 46.7443 13.5363C46.7064 13.6122 46.7443 13.6683 46.8205 13.6683H51.4418L51.4659 13.6663C51.526 13.6554 51.5521 13.6039 51.5183 13.5366C51.1744 12.8601 50.8882 12.014 50.8882 11.2055V1.44738L50.8886 1.35069C50.8946 0.655377 50.964 0.220767 50.964 0.112527Z" fill="white"/>
<path fill-rule="evenodd" clip-rule="evenodd" d="M66.9673 3.51582C70.557 3.51582 72.3713 5.80932 72.3713 8.51697C72.3713 11.713 70.137 14.0445 67.0629 14.0445C63.9228 14.0445 62.3775 12.5403 61.818 10.7111C61.2906 12.082 59.8322 14.0445 56.9608 14.0445C53.9817 14.0445 51.9765 11.976 51.9765 8.89284C51.9765 5.45193 54.3826 3.51582 57.1896 3.51582C58.8513 3.51582 60.1878 4.22994 61.1621 5.90337C61.4003 6.33666 61.3744 6.68316 61 6.82638L60.9514 6.84321L58.1635 7.65204C58.0297 7.68966 57.9535 7.65204 58.0109 7.3887C58.3927 5.56512 58.087 4.0986 57.1326 4.0986C55.9674 4.0986 55.4327 6.204 55.4327 7.74609C55.4327 9.96468 56.5405 11.5625 58.6983 11.5625C60.3136 11.5625 61.2587 10.663 61.6724 10.1224C61.5987 9.72925 61.5621 9.33024 61.563 8.93046C61.563 5.80932 63.8543 3.51582 66.9673 3.51582ZM66.7187 4.09827L66.77 4.09695L66.8207 4.09827C67.8224 4.14678 68.3284 5.73903 68.4948 8.70507C68.6477 11.7503 68.2847 13.4049 67.2152 13.4614C66.146 13.5181 65.6304 11.9011 65.4586 8.83674C65.3057 5.79084 65.6499 4.1547 66.7187 4.09827Z" fill="white"/>
<path fill-rule="evenodd" clip-rule="evenodd" d="M42.0462 3.51582C44.3761 3.51582 46.0375 4.68138 46.0375 6.336C46.0375 8.17872 43.9558 9.45681 40.824 9.45681C40.557 9.45681 40.347 9.43833 40.137 9.41919C40.5765 10.7164 41.5883 11.5625 43.1919 11.5625C45.1971 11.5625 46.171 10.228 46.4001 9.83334C46.4957 9.66339 46.6484 9.72015 46.6296 9.88944C46.4766 11.0738 45.0253 14.0445 41.4353 14.0445C38.4753 14.0445 36.4319 12.0136 36.4319 8.89284C36.4319 5.65917 38.6283 3.51582 42.0462 3.51582ZM39.8884 7.78371C39.8884 6.16671 40.4423 4.09827 41.7597 4.09827C42.2945 4.09827 42.638 4.62462 42.638 5.71527C42.638 7.55799 41.7027 8.70507 40.0414 9.0618C39.9457 8.66712 39.8884 8.23482 39.8884 7.78371Z" fill="white"/>
<path fill-rule="evenodd" clip-rule="evenodd" d="M94.6947 3.51582C97.0247 3.51582 98.686 4.68138 98.686 6.336C98.686 8.17872 96.6043 9.45681 93.4725 9.45681C93.243 9.45535 93.0137 9.44279 92.7855 9.41919C93.225 10.7164 94.2368 11.5625 95.8404 11.5625C97.8456 11.5625 98.8195 10.228 99.049 9.83334C99.1446 9.66339 99.2972 9.72015 99.2781 9.88944C99.1251 11.0738 97.6738 14.0445 94.0838 14.0445C91.1242 14.0445 89.0804 12.0136 89.0804 8.89284C89.0804 5.65917 91.2768 3.51582 94.6947 3.51582ZM92.5369 7.78371C92.5369 6.16671 93.0911 4.09827 94.4086 4.09827C94.9433 4.09827 95.2868 4.62462 95.2868 5.71527C95.2868 7.55799 94.3512 8.70507 92.6899 9.0618C92.5946 8.66712 92.5369 8.23482 92.5369 7.78371Z" fill="white"/>
<path d="M24.9775 16.8398C24.9775 16.7643 24.9395 16.7266 24.8631 16.7266C24.8057 16.7266 24.7107 16.7643 24.5383 16.8775L20.1274 19.7917L20.0824 19.8231C19.9274 19.9326 19.8794 19.9854 19.8794 20.0547C19.8794 20.1108 19.9174 20.1484 19.9935 20.1484H21.3878V26.56L21.3888 26.6544C21.423 28.3446 22.3768 29.3049 24.233 29.3049C25.7991 29.3049 26.9253 28.7034 27.3648 27.5187C27.403 27.4246 27.403 27.3302 27.3077 27.3302C27.2695 27.3302 27.2309 27.3494 27.1739 27.4061C26.9635 27.6315 26.6196 27.7444 26.1231 27.7444C25.3217 27.7444 24.9013 27.3497 24.9013 26.4092V20.1484H26.9635L26.994 20.1461C27.0507 20.1375 27.0809 20.1029 27.097 20.055L27.4218 19.3026L27.4319 19.2789C27.4513 19.2195 27.4134 19.1895 27.3456 19.1895H24.9016V19.0759C24.906 17.8737 24.9775 16.985 24.9775 16.8398Z" fill="white"/>
<path d="M31.9099 15.4106C31.9099 15.3353 31.8713 15.2977 31.7948 15.2977C31.7381 15.2977 31.6613 15.3169 31.4707 15.373L27.2695 16.5765L27.246 16.5854C27.1896 16.6154 27.1802 16.6953 27.2312 16.7458L27.4218 16.99L27.4929 17.0741C28.0052 17.6965 28.3195 18.4417 28.3195 19.3591V26.5032L28.3172 26.6511C28.292 27.4338 28.0669 28.1094 27.6892 28.8347C27.6513 28.9099 27.6892 28.9667 27.7657 28.9667H32.387L32.4111 28.9647C32.4708 28.9538 32.497 28.9017 32.4634 28.835C32.1196 28.1579 31.8331 27.3121 31.8331 26.5032V23.0627L31.8337 22.9567C31.8552 21.5975 32.2923 20.9008 33.0744 20.9008C33.7239 20.9008 34.0862 21.4269 34.0862 22.4235V26.5032L34.0838 26.6511C34.0587 27.4338 33.8339 28.1094 33.4565 28.8347C33.4179 28.9099 33.4565 28.9667 33.5326 28.9667H38.1539L38.1777 28.9647C38.2378 28.9538 38.2643 28.9017 38.2301 28.835C37.8865 28.1579 37.6004 27.3121 37.6004 26.5032V22.3109L37.5994 22.1941C37.5665 20.0296 36.6154 18.8136 34.946 18.8136C33.5518 18.8136 32.4634 19.6033 31.8331 21.0137V16.7458L31.8334 16.6491C31.8394 15.9535 31.9099 15.5188 31.9099 15.4106Z" fill="white"/>
<path fill-rule="evenodd" clip-rule="evenodd" d="M4.98395 16.7266C5.06078 16.7266 5.09869 16.7643 5.09869 16.8398C5.09869 16.8782 5.09364 16.9686 5.08615 17.103C5.06528 17.4769 5.0254 18.1916 5.0222 19.0759V19.1895H7.65776C7.7262 19.1895 7.79497 19.2205 7.78021 19.2812L7.77216 19.3026L7.39038 20.0359C7.38324 20.0498 7.37745 20.0624 7.37224 20.0737C7.35295 20.1157 7.34175 20.14 7.3008 20.1468L7.27531 20.1484H5.0222V26.4092C5.0222 27.2177 5.46202 27.6688 6.2447 27.6688C6.84857 27.6688 7.35817 27.3771 7.81678 26.8497C7.39776 26.0488 7.21861 25.1341 7.21861 24.2286C7.21861 21.1071 9.50996 18.8133 12.6226 18.8133C16.2126 18.8133 18.0269 21.1071 18.0269 23.8147C18.0269 27.0111 15.7926 29.3422 12.7182 29.3422C10.3497 29.3422 8.88898 28.4859 8.07342 27.2801C7.37931 28.5799 6.1152 29.3049 4.50723 29.3049C2.63187 29.3049 1.54893 28.3446 1.51001 26.6544L1.50901 26.56V20.1484H0.114736C0.0382452 20.1484 0 20.1108 0 20.0547C0 19.9854 0.0483097 19.9326 0.203639 19.8231L0.248594 19.7917L4.65954 16.8775C4.83131 16.7643 4.92692 16.7266 4.98395 16.7266ZM12.374 19.3967L12.4253 19.3954L12.476 19.3964C13.4777 19.4445 13.984 21.0368 14.15 24.0032C14.3027 27.0487 13.9404 28.703 12.8708 28.7591C11.8013 28.8159 11.2857 27.1989 11.1139 24.1345C10.9609 21.0889 11.3048 19.4528 12.374 19.3967Z" fill="white"/>
<path fill-rule="evenodd" clip-rule="evenodd" d="M44.1692 18.8136C46.4991 18.8136 48.1601 19.9795 48.1601 21.6338C48.1601 23.4765 46.0787 24.7552 42.947 24.7552C42.6796 24.7552 42.4699 24.7361 42.2599 24.717C42.6991 26.0148 43.7112 26.8606 45.3152 26.8606C47.32 26.8606 48.2943 25.5261 48.5231 25.1311C48.6187 24.9618 48.7713 25.0179 48.7525 25.1875C48.5996 26.3716 47.1483 29.3422 43.5582 29.3422C40.5983 29.3422 38.5555 27.3121 38.5555 24.1909C38.5555 20.9569 40.7512 18.8136 44.1692 18.8136ZM42.0113 23.0818C42.0113 21.4648 42.5655 19.3967 43.883 19.3967C44.4177 19.3967 44.7613 19.923 44.7613 21.0137C44.7613 22.8561 43.8253 24.0032 42.1643 24.3602C42.0687 23.9652 42.0113 23.5329 42.0113 23.0818Z" fill="white"/>
</svg>
